<svg width="603" height="384" viewBox="0 0 603 384" fill="none" xmlns="http://www.w3.org/2000/svg">
<path d="M323.183 109.323C325.843 109.323 327.981 111.544 327.916 114.239L325.224 225.482C325.161 228.085 323.06 230.162 320.491 230.162H282.549C279.933 230.162 277.813 228.014 277.813 225.365V114.121C277.813 111.471 279.933 109.323 282.549 109.323H323.183Z" fill="white"/>
<path d="M338.541 111.514C338.541 110.274 339.475 109.237 340.694 109.125L386.33 104.934C388.604 104.725 390.479 106.714 390.169 109.006L379.637 186.854C378.686 193.881 384.569 199.912 391.515 199.031L441.839 192.649C445.44 192.193 448.595 195.097 448.49 198.773L447.662 227.833C447.625 229.13 446.577 230.162 445.296 230.162H340.908C339.601 230.162 338.541 229.088 338.541 227.763V111.514Z" fill="white"/>
<path d="M460.025 96.2533C460.025 91.6832 462.861 87.6125 467.132 86.144C482.761 80.7707 520.153 68.4418 538.099 67.0397C561.128 65.2406 584.443 70.5001 597.935 96.4258C606.774 113.081 603.308 186.639 593.228 203.294C577.876 229.062 549.652 230.162 532.129 230.162H462.393C461.085 230.162 460.025 229.088 460.025 227.763V96.2533ZM538.099 186.383C549.992 183.496 554.727 178.064 559.462 165.393C565.381 144.664 564.114 126.343 559.462 118.015C552.174 104.503 527.843 112.322 516.846 116.52C507.886 119.94 504.883 125.15 504.077 126.962C503.89 127.385 503.825 127.846 503.825 128.31V185.168C503.825 188.046 506.308 190.277 509.128 189.931L538.099 186.383Z" fill="white"/>
<path d="M258.678 224.511L269.964 89.8884C270.221 86.8152 266.793 84.8593 264.334 86.6759L243.904 101.763C238.599 105.679 234.797 111.336 233.143 117.772L223.45 155.485C222.605 158.775 218.145 159.152 216.773 156.05L189.449 94.2588C185.741 85.8747 174.05 85.7166 170.123 93.9973L138.007 161.719C137.225 163.367 134.983 163.558 133.94 162.066L58.4843 54.0587C58.0733 53.4704 57.1753 53.9822 57.4581 54.6436L74.7743 95.1517C75.3362 96.466 73.5622 97.4922 72.7308 96.3339L4.30839 1.01175C2.59608 -1.37373 -1.03101 0.868974 0.279694 3.50277L114.233 232.486C119.423 242.916 133.673 244.073 140.436 234.613L168.134 195.872C174.703 186.685 187.409 184.696 196.407 191.447L247.374 229.685C251.842 233.037 258.207 230.124 258.678 224.511Z" fill="white"/>
<path fill-rule="evenodd" clip-rule="evenodd" d="M215.716 258.56L452.248 234.352C454.893 234.081 456.883 236.742 455.91 239.249L423.142 323.649L438.524 268.403L411.946 330.523C410.479 333.951 406.953 335.985 403.295 335.512L242.126 314.694C237.985 314.159 234.162 312.163 231.329 309.056L200.949 275.737C200.454 275.194 201.178 274.401 201.751 274.859L207.313 279.307C207.815 279.708 208.501 279.129 208.203 278.556L205.633 273.624C205.317 273.016 206.094 272.434 206.575 272.92L217.044 283.496C217.558 284.015 218.365 283.322 217.944 282.723L205.293 264.752C204.929 264.235 205.505 263.574 206.056 263.876L215.151 268.852C215.708 269.157 216.284 268.484 215.909 267.968L213.217 264.279C211.581 262.035 212.977 258.84 215.716 258.56ZM377.116 252.654C374.879 252.948 373.476 255.254 374.222 257.411L381.412 278.223C384.393 286.851 385.465 296.038 384.554 305.132L382.857 322.059C382.661 324.013 384.048 325.765 385.973 325.996L398.668 327.519C400.523 327.741 402.23 326.471 402.576 324.612L406.757 302.131C407.748 296.805 409.72 291.716 412.569 287.129L436.281 248.954C437.97 246.235 435.561 242.806 432.472 243.533L413.009 248.112C411.831 248.389 410.873 249.255 410.467 250.41L398.849 283.48C398.444 284.633 396.795 284.504 396.571 283.301L391.139 254.227C390.789 252.354 389.058 251.083 387.193 251.328L377.116 252.654ZM365.951 253.722C368.068 253.458 369.936 255.132 369.936 257.294V273.747C369.936 275.734 368.346 277.345 366.385 277.345H357.048C355.086 277.345 353.497 278.956 353.497 280.943V317.877C353.497 320.085 351.552 321.772 349.399 321.433L338 319.635C336.27 319.362 334.995 317.853 334.995 316.08V280.943C334.995 278.956 333.405 277.345 331.443 277.345H322.046C320.085 277.345 318.495 275.734 318.495 273.747V262.826C318.495 261.009 319.832 259.477 321.612 259.255L365.951 253.722ZM314.333 264.084C314.333 261.797 312.254 260.09 310.046 260.564L298.647 263.01C297.005 263.362 295.831 264.83 295.831 266.53V309.334C295.831 311.08 297.068 312.574 298.766 312.878L310.165 314.915C312.339 315.304 314.333 313.609 314.333 311.372V264.084ZM287.63 281.817C289.55 281.817 291.158 280.256 290.822 278.34C290.381 275.823 289.456 273.756 288.65 272.415C283.008 263.014 269.966 261.53 264.567 261.53H258.562C251.1 261.53 238.422 264.171 232.598 274.871C229.08 281.613 229.444 294.045 233.266 300.416C239.574 311.178 251.525 312.353 259.35 312.353H263.779C276.762 312.353 288.67 308.572 290.759 296.354C291.084 294.449 289.57 292.814 287.664 292.7L275.686 291.986C274.041 291.888 272.627 292.988 271.911 294.492C271.174 296.043 270.15 297.198 268.207 298.436C265.477 300.168 259.593 300.849 255.771 299.302C252.253 297.818 250.251 295.344 249.523 291.818C248.916 288.973 248.613 281.736 252.374 277.778C255.407 274.623 260.745 273.467 263.779 274.024C267.693 274.749 270.074 276.04 271.885 279.534C272.574 280.862 273.86 281.817 275.341 281.817H287.63Z" fill="white"/>
<path d="M324.248 348.752C324.724 349.185 324.963 349.808 324.963 350.621C324.963 352.3 324.122 353.139 322.442 353.139H315.125C314.471 353.139 313.941 352.602 313.941 351.939V349.265C313.941 348.603 314.471 348.066 315.125 348.066H322.442C323.195 348.066 323.797 348.295 324.248 348.752Z" fill="white"/>
<path d="M356.913 348.676C357.515 349.058 357.816 349.719 357.816 350.66C357.816 352.567 356.638 353.52 354.28 353.52H348.957C348.303 353.52 347.773 352.983 347.773 352.321V349.265C347.773 348.603 348.303 348.066 348.957 348.066H354.28C355.459 348.066 356.337 348.269 356.913 348.676Z" fill="white"/>
<path fill-rule="evenodd" clip-rule="evenodd" d="M369.527 339.568L294.154 324.665C291.786 324.197 289.656 326.208 289.949 328.635L296.034 378.959V340.615L301.066 376.773C301.757 381.737 306.559 384.986 311.349 383.729L356.969 371.759C360.335 370.876 363.371 369.011 365.701 366.395L378.049 352.529C378.536 351.982 377.809 351.199 377.241 351.658L377.014 351.841C376.513 352.245 375.824 351.669 376.12 351.094L376.363 350.625C376.677 350.015 375.897 349.436 375.419 349.924L372.424 352.977C371.912 353.499 371.102 352.809 371.521 352.208L376.705 344.775C377.067 344.256 376.489 343.598 375.939 343.902L372.368 345.874C371.832 346.17 371.274 345.523 371.634 345.025C373.117 342.973 371.99 340.055 369.527 339.568ZM332.749 356.076C334.028 354.626 334.667 352.808 334.667 350.621C334.667 348.079 334.504 342.299 332.749 340.748C331.019 339.172 328.774 338.384 326.016 338.384L304.922 335.873C304.204 335.787 303.579 336.368 303.601 337.1L304.793 377.294C304.816 378.093 305.589 378.645 306.34 378.4L314.914 375.595C315.452 375.419 315.792 374.881 315.725 374.312L314.099 360.468C314.015 359.755 314.565 359.127 315.274 359.127H317.755C318.226 359.127 318.652 359.41 318.84 359.847L323.878 371.553C324.095 372.058 324.625 372.348 325.161 372.256L333.006 370.901C333.815 370.761 334.241 369.851 333.838 369.128L328.885 360.255C328.49 359.547 328.895 358.653 329.637 358.343C330.811 357.852 331.848 357.096 332.749 356.076ZM365.001 357.067C366.656 355.389 367.483 353.24 367.483 350.621C367.483 348.435 366.656 346.477 365.001 344.747C363.556 343.193 362.294 342.948 359.264 342.362C358.875 342.287 358.456 342.206 358.004 342.116L339.752 340.168C339.053 340.094 338.444 340.649 338.444 341.361V369.165C338.444 369.917 339.12 370.484 339.849 370.343L346.81 369.001C347.369 368.893 347.773 368.398 347.773 367.822V360.784C347.773 360.122 348.303 359.585 348.957 359.585H358.004C361.038 359.585 363.371 358.746 365.001 357.067Z" fill="white"/>
<path d="M276.167 80.8398C275.54 77.9674 277.515 75.177 280.432 74.8128L327.972 68.8774C331.4 68.4495 334.218 71.543 333.474 74.9159L328.365 98.077C327.86 100.368 325.829 102 323.483 102H284.809C282.458 102 280.425 100.362 279.924 98.0656L276.167 80.8398Z" fill="white"/>
</svg>
