<?xml version="1.0"?>
<svg xmlns="http://www.w3.org/2000/svg" xmlns:xlink="http://www.w3.org/1999/xlink" xmlns:svgjs="http://svgjs.com/svgjs" version="1.1" width="512" height="512" x="0" y="0" viewBox="0 0 64 64" style="enable-background:new 0 0 512 512" xml:space="preserve"><g><g xmlns="http://www.w3.org/2000/svg"><path d="m36 21c4.962 0 9-4.038 9-9s-4.038-9-9-9-9 4.038-9 9 4.038 9 9 9zm-3-6h4v-2h-4v-6h2v-2h2v2h2v2h-4v2h4v6h-2v2h-2v-2h-2z" fill="#ffffff" data-original="#000000" style=""/><path d="m24.296 30.181c.291-1.827.704-4.837.704-7.181 0-.481-.401-1-1.05-1h-4.91c-.573 0-1.04.449-1.04 1 0 1.497 3.349 4.79 6.296 7.181z" fill="#ffffff" data-original="#000000" style=""/><path d="m40 30c-.551 0-1 .449-1 1s.449 1 1 1h4c1.103 0 2 .897 2 2 0 2.206-1.794 4-4 4h-11c-.551 0-1 .449-1 1s.449 1 1 1h9v2h-9-3c-.551 0-1 .449-1 1s.449 1 1 1h12v2h-9c-.551 0-1 .449-1 1s.449 1 1 1h11v2h-8c-.551 0-1 .449-1 1s.449 1 1 1h9.615c3.272 0 8.2-.602 11.385-1.71v-16.843c-2.016-1.678-7.328-3.447-12-3.447z" fill="#ffffff" data-original="#000000" style=""/><path d="m57 34h4v16h-4z" fill="#ffffff" data-original="#000000" style=""/><path d="m34 54c-1.654 0-3-1.346-3-3 0-.352.072-.686.184-1h-.184c-1.654 0-3-1.346-3-3 0-.352.072-.686.184-1h-.184c-1.654 0-3-1.346-3-3s1.346-3 3-3h.184c-.112-.314-.184-.648-.184-1 0-1.654 1.346-3 3-3h11c1.103 0 2-.897 2-2h-4c-1.654 0-3-1.346-3-3s1.346-3 3-3h3c2.865 0 6.181.656 8.926 1.643-1.801-2.942-5.919-6.643-13.926-6.643h-11c0 3.786-.976 8.968-1.018 9.187l-.299 1.576-1.283-.963c-1.263-.947-7.044-5.428-8.187-8.743-4.247.562-5.842 5.583-6.242 7.186-.358 1.432-1.743 2.109-3.083 2.764-1.999.977-3.888 1.9-3.888 4.993v4c0 1.81 1.455 2.836 4.026 4.493 3.555 2.291 8.379 5.399 9.826 13.507h4.582l.378-.63c1.617-2.695 4.574-4.37 7.717-4.37h5.941c3.609 0 5.421 2.209 6.717 4.37l.379.63h4.631c.55-1.895 1.953-3.683 3.315-5.419.687-.876 1.35-1.722 1.846-2.513-2.937.611-6.239.932-8.743.932zm-18-21c-1.103 0-2-.897-2-2s.897-2 2-2 2 .897 2 2-.897 2-2 2z" fill="#ffffff" data-original="#000000" style=""/></g></g></svg>
