<?xml version="1.0"?>
<svg xmlns="http://www.w3.org/2000/svg" xmlns:xlink="http://www.w3.org/1999/xlink" xmlns:svgjs="http://svgjs.com/svgjs" version="1.1" width="512" height="512" x="0" y="0" viewBox="0 0 511 512" style="enable-background:new 0 0 512 512" xml:space="preserve"><g><path xmlns="http://www.w3.org/2000/svg" d="m396.808594 0h-329.847656c-17.75 0-34.4375 6.914062-46.992188 19.46875s-19.46875 29.242188-19.46875 46.992188c0 22.996093 11.742188 43.292968 29.539062 55.230468v-52.769531c0-24.429687 19.875-44.304687 44.308594-44.304687h315.074219c24.433594 0 44.308594 19.875 44.308594 44.304687v52.820313c3.578125-2.402344 6.953125-5.171876 10.070312-8.289063 12.554688-12.554687 19.46875-29.242187 19.46875-46.992187 0-36.648438-29.816406-66.460938-66.460937-66.460938zm0 0" fill="#ffffff" data-original="#000000" style=""/><path xmlns="http://www.w3.org/2000/svg" d="m389.421875 54.152344h-44.304687v103.386718c0 8.15625-6.613282 14.769532-14.769532 14.769532s-14.769531-6.613282-14.769531-14.769532v-103.386718h-167.386719v103.386718c0 8.15625-6.613281 14.769532-14.769531 14.769532s-14.769531-6.613282-14.769531-14.769532v-103.386718h-44.304688c-8.15625 0-14.769531 6.613281-14.769531 14.769531v428.308594c0 8.15625 6.613281 14.769531 14.769531 14.769531h315.074219c8.15625 0 14.769531-6.613281 14.769531-14.769531v-428.308594c0-8.15625-6.613281-14.769531-14.769531-14.769531zm-246.152344 187.078125h24.613281v-24.613281c0-8.160157 6.613282-14.769532 14.769532-14.769532s14.769531 6.609375 14.769531 14.769532v54.152343c0 5.429688 4.417969 9.847657 9.847656 9.847657 5.429688 0 9.847657-4.417969 9.847657-9.847657v-29.539062c0-21.714844 17.667968-39.382813 39.382812-39.382813s39.382812 17.667969 39.382812 39.382813h24.617188c8.15625 0 14.769531 6.613281 14.769531 14.769531s-6.613281 14.769531-14.769531 14.769531h-24.617188v24.613281c0 8.160157-6.609374 14.769532-14.765624 14.769532-8.160157 0-14.769532-6.609375-14.769532-14.769532v-54.152343c0-5.429688-4.417968-9.847657-9.847656-9.847657s-9.847656 4.417969-9.847656 9.847657v29.539062c0 21.714844-17.667969 39.382813-39.382813 39.382813-21.71875 0-39.386719-17.667969-39.386719-39.382813h-24.613281c-8.15625 0-14.769531-6.613281-14.769531-14.769531s6.613281-14.769531 14.769531-14.769531zm201.847657 162.460937c0 8.15625-6.613282 14.769532-14.769532 14.769532-10.859375 0-19.695312 8.835937-19.695312 19.691406 0 8.15625-6.609375 14.769531-14.769532 14.769531h-128c-8.15625 0-14.765624-6.613281-14.765624-14.769531 0-10.855469-8.835938-19.691406-19.695313-19.691406-8.15625 0-14.769531-6.613282-14.769531-14.769532v-49.230468c0-8.15625 6.613281-14.769532 14.769531-14.769532s14.769531 6.613282 14.769531 14.769532v36.726562c15.289063 4.816406 27.382813 16.90625 32.199219 32.195312h102.988281c4.816406-15.289062 16.910156-27.378906 32.199219-32.195312v-36.726562c0-8.15625 6.613281-14.769532 14.769531-14.769532s14.769532 6.613282 14.769532 14.769532zm0 0" fill="#ffffff" data-original="#000000" style=""/></g></svg>
