<?xml version="1.0"?>
<svg xmlns="http://www.w3.org/2000/svg" xmlns:xlink="http://www.w3.org/1999/xlink" xmlns:svgjs="http://svgjs.com/svgjs" version="1.1" width="512" height="512" x="0" y="0" viewBox="0 0 505.967 505.967" style="enable-background:new 0 0 512 512" xml:space="preserve" class=""><g><g xmlns="http://www.w3.org/2000/svg"><g><path d="m275.802 75.795c-37.626 3.507-67.288 34.898-67.288 73.426v44.47h-83.037l-59.293 88.94h313.319l-59.293-88.94h-82.05v-44.47c0-22.613 17.025-41.132 38.895-43.907l58.73 58.731h170.182v-148.234h-170.182zm80.945-.69h88.94v29.647h-88.94z" fill="#343434" data-original="#000000" style="" class=""/><path d="m59.293 460.509h88.94v29.647h-88.94z" fill="#343434" data-original="#000000" style="" class=""/><path d="m297.453 460.509h88.94v29.647h-88.94z" fill="#343434" data-original="#000000" style="" class=""/><path d="m29.647 339.193v17.554h74.116c24.522 0 44.47 19.948 44.47 44.47v29.647h149.221v-29.647c0-24.522 19.948-44.47 44.47-44.47h74.116v-17.554c17.217-6.14 29.647-22.439 29.647-41.739v-14.824h-29.647v14.823c0 8.178-6.645 14.823-14.823 14.823h-356.747c-8.178 0-14.823-6.645-14.823-14.823v-14.823h-29.647v14.823c0 19.3 12.43 35.6 29.647 41.74zm148.232 17.554h89.928v29.647h-89.928z" fill="#343434" data-original="#000000" style="" class=""/><path d="m416.04 386.393h-74.116c-8.178 0-14.823 6.645-14.823 14.823v29.647h44.47c24.52 0 44.469-19.948 44.469-44.47z" fill="#343434" data-original="#000000" style="" class=""/><path d="m118.586 430.863v-29.647c0-8.178-6.645-14.823-14.823-14.823h-74.116c0 24.522 19.948 44.47 44.47 44.47z" fill="#343434" data-original="#000000" style="" class=""/></g></g></g></svg>
